PathFileType	4	(X/Y/Z)	C:/Users/opensim2020/Desktop/walking_exp_matlab/subject02_walking13_straight_02.trc	
DataRate	CameraRate	NumFrames	NumMarkers	Units	OrigDataRate	OrigDataStartFrame	OrigNumFrames	
100.00	100.00	9	41	mm	100.00	897	125	
Frame#	Time	LFHD			RFHD			LBHD			RBHD			C7			T10			CLAV			STRN			RBAK			LSHO			LUPA			LELB			LFRM			LWRA			LWRB			LFIN			RSHO			RUPA			RELB			RFRM			RWRA			RWRB			RFIN			LASI			RASI			LPSI			RPSI			LTHI			LKNE			LTIB			LANK			LHEE			LTOE			RTHI			RKNE			RTIB			RANK			RHEE			RTOE			*39			*40			
		X1	Y1	Z1	X2	Y2	Z2	X3	Y3	Z3	X4	Y4	Z4	X5	Y5	Z5	X6	Y6	Z6	X7	Y7	Z7	X8	Y8	Z8	X9	Y9	Z9	X10	Y10	Z10	X11	Y11	Z11	X12	Y12	Z12	X13	Y13	Z13	X14	Y14	Z14	X15	Y15	Z15	X16	Y16	Z16	X17	Y17	Z17	X18	Y18	Z18	X19	Y19	Z19	X20	Y20	Z20	X21	Y21	Z21	X22	Y22	Z22	X23	Y23	Z23	X24	Y24	Z24	X25	Y25	Z25	X26	Y26	Z26	X27	Y27	Z27	X28	Y28	Z28	X29	Y29	Z29	X30	Y30	Z30	X31	Y31	Z31	X32	Y32	Z32	X33	Y33	Z33	X34	Y34	Z34	X35	Y35	Z35	X36	Y36	Z36	X37	Y37	Z37	X38	Y38	Z38	X39	Y39	Z39	X40	Y40	Z40	X41	Y41	Z41	

32	0.310	1451.44946	540.06738	1703.86963	1310.60925	561.07587	1681.32971	1479.36145	674.97394	1643.11621	1341.21851	708.00507	1620.61133	1408.39026	752.12408	1498.76428	1404.82117	800.94995	1218.74182	1420.72961	613.52563	1429.08167	1419.65662	559.10645	1259.41809	1351.22595	809.20245	1316.60425	1585.28552	687.97961	1478.22791	1705.53284	668.33496	1307.14075	1766.98169	622.49408	1185.68994	1801.53625	514.94098	1110.57532	1793.70703	381.16321	1085.23621	1820.30786	412.69241	1046.46948	1841.57300	352.51392	1035.08484	1223.28540	682.13977	1454.85522	1144.53540	749.11444	1276.64990	1126.49719	766.24768	1130.74597	1113.53674	759.66888	1009.01270	1141.03149	735.43481	876.88879	1105.79810	780.36780	880.49500	1110.31384	757.04779	810.94067	1567.14783	601.70337	952.63953	1319.73938	558.77783	948.69147	1454.78198	790.52307	1007.11255	1338.05701	777.94861	1009.49017	1614.74548	752.84558	660.08533	1590.88379	828.49017	479.40100	1569.65271	982.91626	366.04956	1536.45361	1110.78455	183.15681	1477.44275	1137.10413	187.60085	1547.96326	1046.48303	38.24930	1250.34167	554.19421	653.97601	1316.86707	487.35431	465.32883	1324.39465	491.60126	276.81277	1377.74060	491.63315	88.17442	1439.30566	523.61975	38.94526	1369.16125	339.93106	43.77399	1372.20129	645.86176	1777.02307	-3357.05469	2845.76025	1034.30212 
33	0.320	1451.53308	527.24854	1705.21643	1310.31628	548.34686	1682.55688	1479.37061	662.08795	1644.02295	1341.18555	695.21490	1621.62927	1408.55457	738.96820	1499.71240	1405.48999	787.17047	1219.49475	1420.88818	600.19165	1430.31213	1419.73853	545.16199	1260.95313	1351.75598	795.78308	1317.42505	1585.52087	674.67688	1479.70935	1705.04395	657.75031	1307.48169	1765.42517	613.52350	1184.77698	1799.19495	506.10425	1108.99475	1789.63892	372.53610	1082.70581	1816.91895	403.84653	1044.33472	1837.16699	343.28763	1032.63904	1223.86731	669.27179	1456.18982	1144.61218	734.07153	1277.32629	1126.94592	750.55731	1131.27905	1113.44800	743.80511	1009.80365	1140.18640	719.51459	877.35571	1105.32715	764.95441	881.17841	1109.57617	741.23926	811.49347	1564.34326	586.11841	953.05157	1318.71423	544.23596	950.65765	1456.18921	775.60175	1007.99139	1338.55640	763.57147	1011.29889	1615.64868	732.10626	657.67090	1593.59082	803.54712	476.60184	1572.03394	959.28674	366.92938	1538.53113	1092.10718	189.49873	1478.17859	1117.33264	196.58487	1549.18921	1039.01489	40.94865	1251.51001	540.08905	654.94000	1317.82458	476.57608	464.86993	1325.42297	486.90897	276.44223	1378.74182	490.11664	88.10690	1439.47498	523.27649	39.26289	1370.16956	338.81897	42.51944	1372.24890	633.24811	1777.96252	-3357.02563	2845.89087	1034.14832 
34	0.330	1451.24084	514.61194	1706.56921	1310.21252	535.82477	1684.12732	1479.51099	649.14136	1645.07825	1341.37207	682.39252	1622.67932	1408.67859	726.14307	1500.53748	1405.74805	773.39709	1220.41724	1421.27930	587.00726	1431.59485	1419.78137	531.51050	1262.28784	1352.02661	781.91034	1318.27991	1585.35583	661.28033	1481.06970	1704.08472	646.95160	1307.68982	1763.74548	604.82031	1183.99902	1796.51086	497.81931	1107.10620	1785.38586	364.65796	1079.48560	1813.58215	395.91528	1041.79028	1832.38867	334.74399	1029.28186	1224.09167	655.85919	1457.27869	1144.83484	719.52356	1278.05591	1127.29053	734.71906	1131.96155	1113.58167	727.57867	1010.66956	1139.34692	702.57062	877.74347	1104.83875	748.01593	881.95715	1108.86670	724.70697	812.11157	1561.96680	570.90961	953.54163	1317.51282	530.29565	952.72101	1457.27258	761.26465	1009.01538	1339.16345	749.59753	1012.80328	1616.49683	710.80676	654.77155	1596.29504	777.83179	473.64438	1574.96802	934.89557	367.27084	1539.28308	1073.65906	196.67883	1478.04675	1096.97583	204.86168	1553.66907	1027.27502	46.02286	1252.96057	526.09772	656.70953	1318.46960	466.83975	464.44504	1326.42285	483.61057	276.09277	1379.18896	489.02469	88.53029	1439.56836	523.04608	39.42503	1370.31396	338.22888	41.93521	1372.40405	621.08942	1779.16150	-3357.04443	2845.98926	1034.20544 
35	0.340	1450.87988	501.80508	1708.36902	1310.10828	523.41125	1685.91956	1479.71606	636.21240	1646.52112	1341.57361	669.67938	1623.89526	1409.03955	713.53876	1501.60291	1405.88733	759.73199	1221.72217	1421.81226	573.88037	1433.13623	1420.52551	518.41199	1264.06567	1352.57605	768.41144	1319.45813	1585.86548	648.55121	1482.76184	1703.67212	636.47266	1308.22656	1761.73376	596.20245	1183.07031	1793.77612	489.99310	1104.86719	1780.93567	357.32452	1075.54956	1809.87964	388.45453	1038.35974	1827.65259	327.11761	1025.16614	1224.57227	642.67120	1458.74963	1145.02490	704.61511	1278.81116	1127.67139	718.51031	1132.57703	1113.33020	710.63849	1011.37573	1139.04370	685.49829	878.78668	1104.20190	730.51941	882.64380	1108.20813	707.27045	812.93994	1559.81897	556.14801	953.94086	1316.05298	516.94073	954.72101	1458.00879	747.35266	1010.21625	1339.82825	736.17725	1014.23431	1617.17139	688.75812	651.69189	1599.24121	751.74005	471.10132	1578.10583	910.24542	367.99368	1538.16858	1053.97559	203.82152	1476.67542	1075.05444	211.13264	1560.75513	1011.01556	52.36768	1252.80774	512.45642	658.03052	1319.37781	459.45294	463.90753	1327.39636	480.53418	276.01059	1379.81982	488.47318	88.71059	1439.73071	523.08673	39.68040	1370.86389	337.74045	41.58445	1372.61072	609.06702	1780.60681	-3356.90625	2845.87842	1034.34094 
36	0.350	1450.68347	489.07712	1710.53906	1310.00464	511.05661	1687.83838	1480.02148	623.21948	1648.34082	1342.02979	657.07269	1625.50366	1409.46655	700.92859	1503.09888	1405.95032	746.35944	1223.39209	1422.48035	561.15283	1434.96228	1421.14404	505.28549	1265.74036	1353.36511	755.50476	1321.09705	1586.44934	636.06232	1484.51221	1703.05054	626.07855	1308.57886	1760.05920	588.03003	1182.49268	1790.96240	482.61789	1102.38306	1776.20654	350.32373	1070.76782	1806.20667	381.65985	1034.40710	1822.72400	320.07953	1020.19281	1225.11121	629.53326	1460.26563	1145.45496	689.20111	1279.84839	1127.85303	702.18738	1133.41321	1113.55652	693.80560	1012.43872	1138.64478	667.79840	879.82111	1103.75867	713.11017	883.63507	1107.54529	689.09869	813.98950	1558.11328	541.85236	954.40143	1314.66394	503.96762	956.73834	1458.50330	733.93890	1011.81964	1340.32996	723.27173	1015.71893	1618.24585	666.33618	649.91388	1601.95020	725.43542	469.06183	1580.53467	885.23975	370.02957	1536.68530	1031.72339	210.41916	1474.65503	1052.15918	215.42082	1567.97827	991.28967	59.82976	1252.70007	500.03873	659.56372	1319.54675	453.33655	463.52319	1327.79065	477.01550	276.08096	1380.21204	487.82770	89.07063	1439.79248	522.94220	39.61913	1371.33386	337.30621	41.30980	1372.74561	596.89325	1782.36816	-3356.80347	2845.85620	1034.27856 
37	0.360	1450.51404	476.33228	1712.86157	1309.93115	498.74124	1689.80017	1480.06726	610.11859	1650.38232	1342.47803	644.57184	1627.33911	1409.94214	688.14966	1505.13586	1406.23474	733.32507	1225.39990	1423.00745	548.22839	1437.02417	1422.36462	492.63248	1267.88159	1353.51025	742.15094	1322.84521	1587.33228	623.93335	1486.42664	1702.60364	615.96771	1309.09033	1758.08667	579.88403	1181.81421	1788.07239	475.73840	1099.64038	1771.82300	344.12482	1065.57239	1802.46582	375.58063	1030.03711	1817.64038	313.89395	1014.51636	1225.69519	616.09052	1462.07056	1145.95972	673.94312	1280.88159	1128.05017	685.54163	1134.38513	1113.44739	676.64032	1013.56427	1138.38660	649.34442	881.25049	1103.29333	694.74072	884.83014	1106.82825	670.08020	815.30170	1556.93152	528.05408	955.03931	1313.44336	491.46783	958.65283	1458.75940	720.98523	1013.78955	1340.74548	710.78217	1017.42957	1619.24890	644.27582	649.72998	1604.13196	698.98340	468.02753	1581.40771	859.72864	373.15390	1535.69714	1007.59308	215.88408	1473.03687	1028.04944	218.33949	1574.33643	967.87561	67.04260	1252.20898	488.12357	660.99005	1319.57166	447.72998	463.40216	1327.71045	473.06223	276.35144	1380.48059	487.19879	89.41234	1439.89319	522.86035	39.74176	1371.46155	337.07355	41.10039	1372.63538	584.41211	1784.27966	-3356.71680	2846.15747	1034.22461 
38	0.370	1450.50012	463.59680	1715.39355	1310.15381	486.43875	1691.94739	1480.49841	597.27692	1652.79272	1343.31177	632.55426	1629.29346	1410.51270	675.28540	1507.52551	1406.78003	720.53540	1227.68298	1424.23706	535.88483	1439.47339	1423.42798	479.95270	1270.04297	1354.07275	729.65643	1325.34937	1588.42065	612.06122	1488.52612	1702.06812	606.09167	1309.70398	1756.17444	572.01935	1181.34021	1784.88611	469.26135	1096.73608	1767.21094	338.48535	1059.76770	1798.54810	370.11475	1025.08777	1812.64758	308.56018	1008.10510	1226.30090	602.51501	1464.13599	1146.25879	658.26483	1281.93201	1128.33362	668.59064	1135.70593	1113.26794	658.51666	1014.72064	1138.16760	630.51593	882.82813	1102.80933	675.62714	886.10260	1106.22864	650.43011	817.04120	1556.29883	514.72491	956.06586	1312.36584	479.08133	960.47198	1458.74744	708.42474	1016.04431	1341.04407	698.55725	1019.46381	1620.36304	623.49225	651.30573	1605.65088	672.54529	468.48853	1581.28845	833.37622	376.07123	1535.56543	982.15125	219.79517	1472.25793	1002.63434	220.16136	1580.32153	941.53320	73.14089	1252.46912	478.57230	661.88135	1319.46692	441.41800	463.36804	1327.30371	469.28180	276.56363	1380.69690	486.77515	89.68862	1439.90039	522.86328	39.82307	1371.45129	336.84039	40.83509	1372.62366	571.98914	1786.46350	-3356.93164	2845.98853	1034.27002 
39	0.380	1450.48193	450.87448	1717.89551	1310.23352	474.04532	1694.03918	1481.20288	584.56622	1655.47876	1343.78992	619.55396	1631.47473	1410.94275	662.49261	1510.10205	1407.83630	709.02966	1230.29248	1425.26025	523.29730	1441.93140	1424.52917	467.24960	1272.41577	1353.76318	716.57593	1327.85791	1589.42102	600.15668	1490.76599	1701.59253	596.49005	1310.53052	1753.71423	564.10468	1180.75415	1782.07007	463.37360	1093.94165	1762.50769	333.53940	1053.46533	1794.97534	365.72845	1020.19110	1807.63123	304.22806	1001.12024	1226.86389	588.79999	1466.36255	1146.66467	642.46582	1283.48010	1128.57300	651.46423	1137.18176	1113.48840	639.98828	1016.58453	1138.06653	611.22974	884.71429	1102.48706	656.16034	887.72284	1105.62671	630.18353	819.01166	1556.31433	501.78394	957.65369	1311.46558	466.96912	962.19141	1458.47595	696.09326	1018.54529	1341.19104	686.44214	1021.79871	1621.13232	602.92395	653.10461	1606.70898	646.17487	470.45688	1581.01782	806.17145	378.28607	1536.02002	955.57281	222.40054	1472.40991	976.44092	221.17130	1585.59302	913.41138	78.39207	1253.04517	471.24799	662.47980	1319.80969	435.88028	463.30905	1326.83875	466.11716	276.68896	1381.03772	486.26874	89.63677	1439.92090	522.88721	39.84604	1371.41150	336.74622	40.70855	1372.62048	559.47937	1788.71082	-3357.03345	2845.86523	1034.19739 
40	0.390	1450.38232	438.18195	1720.34497	1310.18506	461.66632	1696.01465	1481.75000	571.84686	1658.25549	1344.36865	607.23505	1633.87659	1411.48438	649.82452	1512.67310	1408.42200	696.41461	1232.83423	1426.30811	510.87411	1444.42834	1425.66394	454.64932	1274.88098	1353.69373	703.83221	1330.64026	1590.60461	588.35175	1493.11853	1700.92468	586.89966	1311.32104	1751.77258	556.72760	1180.83972	1779.06824	457.98792	1091.25378	1757.83777	329.19196	1046.68726	1791.12561	361.92328	1014.82172	1802.51807	300.81741	993.54614	1227.57507	574.99603	1469.01318	1147.19910	626.82996	1285.25464	1128.78992	634.09515	1138.99634	1113.39905	620.98700	1018.49518	1137.95972	591.22992	886.95544	1102.27429	636.12372	889.57190	1105.15991	609.27087	821.24652	1556.99988	489.20978	959.95111	1310.81812	454.93658	963.90833	1458.00830	683.90063	1021.09467	1341.12695	674.33832	1024.22803	1621.55640	582.57947	655.22687	1607.30017	619.71545	473.11252	1581.10913	778.83008	380.33469	1536.80786	928.09906	223.84547	1472.96118	949.36298	220.86937	1590.07483	883.90887	82.58780	1253.35315	464.41794	662.54468	1319.44080	430.60367	463.00720	1326.42603	463.85611	276.63437	1380.53198	485.95743	90.13934	1439.90942	522.97461	39.91055	1371.26160	336.78033	40.58735	1372.63147	546.87500	1791.03333	-3360.44775	2845.26904	1034.35925 
